<svg width="30" height="30" viewBox="0 0 30 30" fill="none" xmlns="http://www.w3.org/2000/svg">
<g clip-path="url(#clip0_73_25)">
<path d="M21.776 0H8.22404C3.6893 0 0 3.6893 0 8.2241V21.776C0 26.3108 3.6893 30 8.22404 30H21.776C26.3108 30 30 26.3108 30 21.776V8.2241C30 3.6893 26.3108 0 21.776 0ZM28.2284 21.776C28.2284 25.3338 25.3339 28.2284 21.776 28.2284H8.22404C4.66617 28.2284 1.77164 25.3339 1.77164 21.776V8.2241C1.77164 4.66617 4.66617 1.77164 8.22404 1.77164H21.776C25.3339 1.77164 28.2284 4.66617 28.2284 8.2241V21.776Z" fill="#F3F4F9"/>
<path d="M15 6.77167C10.4628 6.77167 6.77161 10.4629 6.77161 15C6.77161 19.5372 10.4628 23.2284 15 23.2284C19.5371 23.2284 23.2284 19.5371 23.2284 15C23.2284 10.4628 19.5371 6.77167 15 6.77167ZM15 21.4568C11.4397 21.4568 8.54319 18.5603 8.54319 15C8.54319 11.4397 11.4397 8.54319 15 8.54319C18.5603 8.54319 21.4568 11.4398 21.4568 15C21.4568 18.5603 18.5603 21.4568 15 21.4568Z" fill="#F3F4F9"/>
<path d="M23.7205 3.77948C22.3421 3.77948 21.2206 4.90102 21.2206 6.2795C21.2206 7.65798 22.3421 8.77946 23.7205 8.77946C25.099 8.77946 26.2205 7.65792 26.2205 6.27944C26.2205 4.90096 25.099 3.77948 23.7205 3.77948ZM23.7205 7.00776C23.319 7.00776 22.9922 6.68104 22.9922 6.27944C22.9922 5.87784 23.319 5.55112 23.7205 5.55112C24.1221 5.55112 24.4489 5.8779 24.4489 6.27944C24.4489 6.68098 24.1221 7.00776 23.7205 7.00776Z" fill="#F3F4F9"/>
</g>
<defs>
<clipPath id="clip0_73_25">
<rect width="30" height="30" fill="white"/>
</clipPath>
</defs>
</svg>
