<svg width="30" height="30" viewBox="0 0 30 30" fill="none" xmlns="http://www.w3.org/2000/svg">
<path d="M29.8675 6.41825C29.6901 6.12973 29.3656 5.9662 29.0277 5.9955L27.5318 6.12581L28.9617 3.24341C29.132 2.90011 29.0647 2.48649 28.7945 2.21479C28.5241 1.94309 28.1109 1.87384 27.7668 2.04235L23.9824 3.89573C21.6443 2.6614 18.7233 3.02778 16.7133 4.85878C15.0357 6.3869 14.154 8.73692 14.3184 11.0804C9.93386 10.641 6.22253 8.13136 4.02796 4.07632C3.88236 3.80731 3.60937 3.63136 3.30427 3.60974C2.99859 3.58847 2.7041 3.72393 2.5221 3.96985C1.16097 5.80864 1.06546 8.32981 2.13251 10.404C1.83837 10.3297 1.52536 10.2291 1.17826 10.1132C0.880892 10.0137 0.55306 10.0774 0.314408 10.2809C0.0757553 10.4843 -0.0389712 10.7978 0.0120639 11.1073C0.43429 13.6671 1.92702 15.6345 4.28507 16.799C3.97804 16.9059 3.66474 16.9927 3.34617 17.0591C3.02964 17.1251 2.77335 17.3566 2.67579 17.6649C2.57824 17.9731 2.65453 18.31 2.87542 18.5461C4.57353 20.3612 7.0265 21.2546 8.76884 21.6832C6.78779 23.2345 4.64929 23.4942 1.54183 23.3875C1.18212 23.3766 0.850716 23.5792 0.699486 23.9053C0.548314 24.2314 0.606966 24.6164 0.848548 24.8827C2.14394 26.3105 6.86343 27.9206 11.8247 28.0413C12.0209 28.046 12.2211 28.0486 12.4254 28.0486C15.9089 28.0485 20.5127 27.3018 23.8172 23.9973C26.3184 21.4962 27.8828 18.6168 28.4669 15.4395C28.9387 12.8733 28.6406 10.8183 28.4973 9.83063C28.4867 9.75804 28.4755 9.68098 28.4664 9.6136L29.8656 7.35833C30.0441 7.07063 30.0449 6.70677 29.8675 6.41825ZM26.7265 10.0875C26.992 11.917 27.7997 17.4844 22.552 22.7321C19.5016 25.7824 15.0586 26.3302 11.8682 26.2526C9.14583 26.1864 6.71079 25.6658 4.94595 25.072C5.66249 24.9841 6.30105 24.8485 6.9038 24.6612C8.56546 24.1447 9.96925 23.2153 11.3215 21.7365C11.5469 21.49 11.6161 21.1385 11.5012 20.8249C11.3863 20.5113 11.1063 20.2879 10.775 20.2454C9.92191 20.1361 7.35867 19.7046 5.34023 18.3123C5.92189 18.0744 6.48286 17.7767 7.01853 17.4214C7.31238 17.2264 7.46437 16.8771 7.40648 16.5292C7.34865 16.1814 7.09195 15.8998 6.75081 15.8104C5.09876 15.3773 3.10493 14.4082 2.18554 12.2447C2.77265 12.3476 3.41103 12.3725 4.09189 12.2199C4.40747 12.1492 4.66036 11.9136 4.75318 11.6038C4.84605 11.294 4.76449 10.9581 4.53984 10.7255C3.39585 9.54059 2.96806 7.83306 3.33509 6.3719C4.53708 8.1286 6.05988 9.60704 7.80456 10.7001C10.0365 12.0984 12.6414 12.8712 15.338 12.9347C15.6124 12.9405 15.8756 12.8207 16.0503 12.6082C16.2249 12.3956 16.292 12.1146 16.2323 11.846C15.7684 9.76038 16.4301 7.53698 17.9181 6.18153C19.4615 4.77557 21.7425 4.56229 23.465 5.66321C23.728 5.83132 24.0598 5.85013 24.3402 5.71278L26.1884 4.80763L25.221 6.75768C25.0773 7.04743 25.1011 7.3922 25.2834 7.65932C25.4657 7.92645 25.7774 8.07475 26.1001 8.04645L27.4034 7.93296L26.803 8.90063C26.6015 9.22542 26.6433 9.51358 26.7265 10.0875Z" fill="#F3F4F9"/>
</svg>
