<svg width="30" height="30" viewBox="0 0 30 30" fill="none" xmlns="http://www.w3.org/2000/svg">
<g clip-path="url(#clip0_29_189)">
<path d="M22.5082 18.0608L20.9183 16.4709C20.4845 16.0371 19.885 15.8197 19.2745 15.8746C18.6636 15.9294 18.1128 16.2499 17.7632 16.7537L17.2094 17.5518C16.4562 17.4176 14.9991 17.0379 13.9807 16.0194C12.9618 15.0004 12.5821 13.5427 12.4481 12.7907L13.2464 12.2368C13.7503 11.8871 14.0708 11.3361 14.1254 10.7252C14.1802 10.1143 13.9628 9.51527 13.5292 9.08167L11.9393 7.49179C11.3004 6.85294 10.3374 6.70048 9.54289 7.11216C8.14976 7.83392 7.23465 9.18685 6.96582 10.9217C6.52795 13.7482 7.83465 17.0828 10.3759 19.624C12.5923 21.8404 15.4119 23.1176 17.9717 23.1176C18.347 23.1176 18.7169 23.0902 19.0782 23.0342C20.8132 22.7655 22.1661 21.8502 22.8878 20.4572C22.8878 20.4572 22.8878 20.4572 22.8878 20.4572C23.2995 19.6625 23.1469 18.6995 22.5082 18.0608ZM21.2701 19.6191C20.6966 20.7261 19.6099 21.1082 18.7994 21.2337C16.5707 21.5788 13.77 20.4415 11.6642 18.3357C9.55847 16.23 8.42093 13.4293 8.76617 11.2006C8.89168 10.39 9.27383 9.30345 10.3809 8.72982C10.4109 8.71435 10.4441 8.70679 10.4777 8.70679C10.5396 8.70679 10.6031 8.73228 10.6509 8.78003L12.2408 10.37C12.3069 10.4361 12.3153 10.5112 12.3107 10.5626C12.3061 10.6141 12.2845 10.6865 12.2076 10.7398L10.9518 11.6112C10.6892 11.7935 10.5412 12.1001 10.5621 12.4191C10.57 12.5396 10.7772 15.3924 12.6923 17.3075C14.6074 19.2226 17.4602 19.4299 17.5807 19.4377C17.8994 19.4582 18.2064 19.3107 18.3886 19.048L19.26 17.7922C19.3133 17.7154 19.3858 17.6938 19.4371 17.6892C19.4886 17.6844 19.5637 17.693 19.6299 17.7591L21.2198 19.3489C21.2937 19.4227 21.3143 19.5338 21.2701 19.6191Z" fill="#F3F4F9"/>
<path d="M25.6064 4.39359C22.7732 1.56029 19.0063 0 14.9994 0C10.9925 0 7.22567 1.56029 4.39243 4.39354C1.9844 6.80156 0.455688 9.98853 0.0877189 13.3674C-0.260152 16.5616 0.434066 19.813 2.04469 22.569L0.481528 28.4027C0.39727 28.7171 0.487152 29.0525 0.717367 29.2827C0.947465 29.5128 1.28303 29.6027 1.59721 29.5185L7.43092 27.9554C9.72217 29.2944 12.3559 30 15.0144 30C15.5536 30 16.0939 29.971 16.6325 29.9123C20.0114 29.5444 23.1984 28.0156 25.6064 25.6075C28.4397 22.7743 30 19.0073 30 15.0006C30 10.9938 28.4397 7.22684 25.6064 4.39359ZM24.3181 24.3192C19.9628 28.6746 13.2732 29.4485 8.05032 26.2015C7.90453 26.111 7.73772 26.0642 7.56926 26.0642C7.49039 26.0642 7.41118 26.0745 7.33354 26.0953L2.64973 27.3503L3.90481 22.6665C3.96996 22.4232 3.93147 22.1637 3.79852 21.9498C0.55143 16.7267 1.32545 10.0371 5.68067 5.68184C10.8191 0.543516 19.1797 0.543516 24.3181 5.68184C29.4564 10.8202 29.4564 19.1809 24.3181 24.3192Z" fill="#F3F4F9"/>
</g>
<defs>
<clipPath id="clip0_29_189">
<rect width="30" height="30" fill="white"/>
</clipPath>
</defs>
</svg>
