<svg width="24" height="24" viewBox="0 0 24 24" fill="none" xmlns="http://www.w3.org/2000/svg">
<g id="airplane 1" clip-path="url(#clip0_48_255)">
<g id="Group">
<g id="Group_2">
<path id="Vector" d="M23.879 7.97676C23.6958 7.4736 23.3277 7.07178 22.8424 6.84551C21.0855 6.02622 19.1147 5.94025 17.2931 6.60321L15.3898 7.29594L9.95781 4.60749C9.78564 4.52232 9.58595 4.51121 9.40543 4.57693L6.16221 5.75739C5.91729 5.84655 5.74179 6.06382 5.70616 6.32201C5.67054 6.5802 5.78065 6.83689 5.99229 6.98904L9.43436 9.46365L4.65076 11.2047L2.87573 9.76543C2.68387 9.6099 2.42446 9.56635 2.19238 9.65087L0.462675 10.2805C0.287454 10.3442 0.144718 10.475 0.0659207 10.6441C-0.0128769 10.8131 -0.0213145 11.0064 0.042483 11.1817L1.14424 14.2087C1.50275 15.1937 2.22341 15.9802 3.17348 16.4232C4.12355 16.8663 5.18922 16.9128 6.17426 16.5543L10.3885 15.0204L9.47973 18.5888C9.41542 18.8414 9.49609 19.1088 9.68931 19.2837C9.82075 19.4026 9.9896 19.4655 10.1612 19.4655C10.2419 19.4655 10.3233 19.4516 10.4016 19.4231L13.6449 18.2426C13.8254 18.1769 13.9712 18.0402 14.0484 17.8642L16.226 12.8957L22.6809 10.5463C23.7196 10.1682 24.2571 9.01552 23.879 7.97676ZM7.89337 6.62379L9.60367 6.00133L13.563 7.96091L11.0337 8.8815L7.89337 6.62379ZM22.1999 9.22482L15.4623 11.6771C15.2817 11.7428 15.1359 11.8795 15.0588 12.0555L12.8811 17.024L11.1708 17.6465L12.0795 14.0781C12.1438 13.8255 12.0631 13.5581 11.8699 13.3832C11.7385 13.2643 11.5696 13.2014 11.398 13.2014C11.3173 13.2014 11.2359 13.2154 11.1576 13.2438L5.69327 15.2327C5.0612 15.4628 4.37738 15.4329 3.76777 15.1487C3.15815 14.8644 2.69573 14.3597 2.46571 13.7277L1.60442 11.3614L2.2993 11.1085L4.07434 12.5477C4.26615 12.7032 4.52556 12.7467 4.75769 12.6623L17.7742 7.92468C19.2428 7.39011 20.8317 7.45949 22.2481 8.12001C22.393 8.18756 22.5029 8.30751 22.5576 8.45775C22.6704 8.76787 22.5099 9.11199 22.1999 9.22482Z" fill="#333333"/>
</g>
</g>
</g>
<defs>
<clipPath id="clip0_48_255">
<rect width="24" height="24" fill="white"/>
</clipPath>
</defs>
</svg>
