<svg width="24" height="24" viewBox="0 0 24 24" fill="none" xmlns="http://www.w3.org/2000/svg">
<g id="camera 1">
<g id="Group">
<g id="Group_2">
<g id="Group_3">
<path id="Vector" d="M12.75 7.78125C9.64838 7.78125 7.125 10.3046 7.125 13.4062C7.125 16.5079 9.64838 19.0312 12.75 19.0312C15.8516 19.0312 18.375 16.5079 18.375 13.4062C18.375 10.3046 15.8516 7.78125 12.75 7.78125ZM12.75 17.625C10.4238 17.625 8.53125 15.7325 8.53125 13.4062C8.53125 11.08 10.4238 9.1875 12.75 9.1875C15.0762 9.1875 16.9688 11.08 16.9688 13.4062C16.9688 15.7325 15.0762 17.625 12.75 17.625Z" fill="#333333"/>
</g>
</g>
<g id="Group_4">
<g id="Group_5">
<path id="Vector_2" d="M12.75 10.5938C11.1992 10.5938 9.9375 11.8554 9.9375 13.4062C9.9375 14.9571 11.1992 16.2188 12.75 16.2188C14.3008 16.2188 15.5625 14.9571 15.5625 13.4062C15.5625 11.8554 14.3008 10.5938 12.75 10.5938ZM12.75 14.8125C11.9746 14.8125 11.3438 14.1817 11.3438 13.4062C11.3438 12.6308 11.9746 12 12.75 12C13.5254 12 14.1562 12.6308 14.1562 13.4062C14.1562 14.1817 13.5254 14.8125 12.75 14.8125Z" fill="#333333"/>
</g>
</g>
<g id="Group_6">
<g id="Group_7">
<path id="Vector_3" d="M21.8906 4.96875H17.8076L16.924 2.61248C16.8211 2.33803 16.5587 2.15625 16.2656 2.15625H9.23438C8.94127 2.15625 8.67891 2.33803 8.57602 2.61248L7.69242 4.96875H5.625V4.26562C5.625 3.10252 4.67873 2.15625 3.51562 2.15625C2.35252 2.15625 1.40625 3.10252 1.40625 4.26562V5.08969C0.587859 5.37994 0 6.16148 0 7.07812C0 7.58048 0 19.2869 0 19.7344C0 20.8975 0.946266 21.8438 2.10938 21.8438H21.8906C23.0537 21.8438 24 20.8975 24 19.7344V7.07812C24 5.91502 23.0537 4.96875 21.8906 4.96875ZM9.72164 3.5625H15.7784L16.3057 4.96875H9.19434L9.72164 3.5625ZM2.8125 4.26562C2.8125 3.87792 3.12792 3.5625 3.51562 3.5625C3.90333 3.5625 4.21875 3.87792 4.21875 4.26562V4.96875H2.8125V4.26562ZM1.40625 9.1875H3.51562C3.90333 9.1875 4.21875 9.50292 4.21875 9.89062V16.9219C4.21875 17.3096 3.90333 17.625 3.51562 17.625H1.40625V9.1875ZM22.5938 19.7344C22.5938 20.1221 22.2783 20.4375 21.8906 20.4375H2.10938C1.72167 20.4375 1.40625 20.1221 1.40625 19.7344V19.0312H3.51562C4.67873 19.0312 5.625 18.085 5.625 16.9219V9.89062C5.625 8.72752 4.67873 7.78125 3.51562 7.78125H1.40625V7.07812C1.40625 6.69042 1.72167 6.375 2.10938 6.375C4.33683 6.375 19.781 6.375 21.8906 6.375C22.2783 6.375 22.5938 6.69042 22.5938 7.07812V19.7344Z" fill="#333333"/>
</g>
</g>
<g id="Group_8">
<g id="Group_9">
<path id="Vector_4" d="M20.4844 7.78125H19.0781C18.6898 7.78125 18.375 8.09606 18.375 8.48438C18.375 8.87269 18.6898 9.1875 19.0781 9.1875H20.4844C20.8727 9.1875 21.1875 8.87269 21.1875 8.48438C21.1875 8.09606 20.8727 7.78125 20.4844 7.78125Z" fill="#333333"/>
</g>
</g>
</g>
</g>
</svg>
