<svg width="24" height="24" viewBox="0 0 24 24" fill="none" xmlns="http://www.w3.org/2000/svg">
<g id="cooking 1" clip-path="url(#clip0_48_259)">
<g id="Group">
<g id="Group_2">
<path id="Vector" d="M21.8905 9.84387C21.3684 9.84387 2.70593 9.84387 2.10945 9.84387C0.94635 9.84387 9.15527e-05 10.7901 9.15527e-05 11.9532C9.15527e-05 13.651 1.20983 15.0714 2.81257 15.3981V20.4844C2.81257 22.4229 4.38967 24 6.32817 24H17.6718C19.6103 24 21.1874 22.4229 21.1874 20.4844V15.398C22.7902 15.0714 23.9999 13.651 23.9999 11.9532C23.9999 10.7901 23.0536 9.84387 21.8905 9.84387ZM1.40633 11.9532C1.40633 11.5655 1.72175 11.2501 2.10945 11.2501H2.81257V13.9417C1.99419 13.6514 1.40633 12.8698 1.40633 11.9532ZM19.7812 20.4844C19.7812 21.6475 18.8349 22.5938 17.6718 22.5938H6.32817C5.16507 22.5938 4.21881 21.6475 4.21881 20.4844V11.2501H19.7812V20.4844ZM21.1874 13.9416V11.2501H21.8905C22.2782 11.2501 22.5937 11.5655 22.5937 11.9532C22.5937 12.8698 22.0058 13.6514 21.1874 13.9416Z" fill="#333333"/>
<path id="Vector_2" d="M2.92348 8.02767C3.08511 8.38007 3.5022 8.53574 3.85573 8.3736L19.1843 1.34241C19.5373 1.1805 19.6922 0.763132 19.5303 0.410166C19.3683 0.0571996 18.951 -0.0976742 18.598 0.0642308L13.494 2.40538L13.4876 2.39146C12.8392 0.982786 11.1655 0.364275 9.75677 1.01279C8.34805 1.6613 7.72959 3.33496 8.3781 4.74363L8.38129 4.75062L3.26942 7.09543C2.91645 7.25733 2.76158 7.6747 2.92348 8.02767ZM9.65548 4.15559C9.33125 3.45125 9.64048 2.6144 10.3448 2.29017C11.0492 1.96593 11.886 2.27517 12.2102 2.97951L12.2159 2.99169L9.65946 4.16431L9.65548 4.15559Z" fill="#333333"/>
<path id="Vector_3" d="M19.4931 3.75708C19.4931 3.36877 19.1783 3.05396 18.79 3.05396C18.6584 3.05396 17.4846 3.07369 16.8012 3.75708C16.1178 4.44047 16.0981 5.61422 16.0981 5.74585C16.0981 5.991 16.0127 6.53442 15.8069 6.74021C15.6122 6.93497 15.0968 7.02914 14.8125 7.03144C14.4242 7.03144 14.1094 7.34625 14.1094 7.73456C14.1094 8.12288 14.4242 8.43769 14.8125 8.43769C14.9441 8.43769 16.1179 8.41795 16.8012 7.73456C17.4846 7.05117 17.5044 5.87742 17.5044 5.74856C17.5067 5.46155 17.6009 4.94621 17.7957 4.75144C17.9903 4.55677 18.5053 4.4626 18.7925 4.46021C19.1796 4.45889 19.4931 4.1446 19.4931 3.75708Z" fill="#333333"/>
<path id="Vector_4" d="M19.0312 8.43769C19.1628 8.43769 20.3366 8.41795 21.0199 7.73456C21.7033 7.05117 21.723 5.87742 21.723 5.74856C21.7253 5.46155 21.8196 4.94621 22.0143 4.75144C22.209 4.55677 22.724 4.4626 23.0111 4.46021C23.3983 4.45889 23.7118 4.1446 23.7118 3.75708C23.7118 3.36877 23.397 3.05396 23.0087 3.05396C22.8771 3.05396 21.7033 3.07369 21.02 3.75708C20.3365 4.44047 20.3168 5.61422 20.3168 5.74585C20.3168 5.991 20.2314 6.53442 20.0256 6.74021C19.8309 6.93497 19.3155 7.02914 19.0312 7.03144C18.6429 7.03144 18.3281 7.34625 18.3281 7.73456C18.3281 8.12288 18.6429 8.43769 19.0312 8.43769Z" fill="#333333"/>
</g>
</g>
</g>
<defs>
<clipPath id="clip0_48_259">
<rect width="24" height="24" fill="white"/>
</clipPath>
</defs>
</svg>
