<svg width="24" height="24" viewBox="0 0 24 24" fill="none" xmlns="http://www.w3.org/2000/svg">
<g id="crypto 1" clip-path="url(#clip0_48_249)">
<g id="Group">
<g id="Group_2">
<path id="Vector" d="M2.10975 24C1.55046 23.9994 1.01424 23.777 0.618722 23.3816C0.223207 22.9861 0.000694827 22.4499 0 21.8906L0 9.00001C0.000810432 8.49569 0.181994 8.0083 0.510806 7.62591C0.839619 7.24352 1.29437 6.99137 1.79288 6.91501C2.00683 6.89069 2.22234 6.88279 2.4375 6.89139C2.47578 6.89135 2.51354 6.88258 2.54791 6.86575C2.58229 6.84892 2.61237 6.82447 2.63587 6.79426L7.76513 0.198386C7.84808 0.0920032 7.96945 0.0223967 8.10316 0.00451697C8.23687 -0.0133627 8.37226 0.0219108 8.48025 0.102761L11.1307 2.09026C11.1707 2.12027 11.2187 2.13765 11.2686 2.14019C11.3185 2.14273 11.3681 2.13031 11.4109 2.10451L14.7979 0.075011C14.9111 0.00682217 15.0461 -0.0152462 15.1751 0.0133727C15.3041 0.0419916 15.4172 0.119107 15.4909 0.228761L19.8975 6.83926C19.9335 6.89313 19.9888 6.93112 20.052 6.94539C20.5185 7.05152 20.9355 7.31225 21.2352 7.68524C21.5348 8.05823 21.6996 8.52156 21.7028 9.00001V12C21.7028 12.0666 21.7292 12.1306 21.7763 12.1777C21.8235 12.2248 21.8874 12.2513 21.954 12.2513H23.4855C23.6219 12.2514 23.7527 12.3056 23.8492 12.4021C23.9457 12.4985 23.9999 12.6293 24 12.7658V17.3599C23.9998 17.4963 23.9455 17.627 23.8491 17.7235C23.7526 17.8199 23.6219 17.8742 23.4855 17.8744H18.1256C17.3925 17.8555 16.6958 17.5509 16.184 17.0257C15.6722 16.5005 15.3857 15.7962 15.3857 15.0628C15.3857 14.3295 15.6722 13.6251 16.184 13.0999C16.6958 12.5747 17.3925 12.2702 18.1256 12.2513H20.4229C20.4895 12.2513 20.5534 12.2248 20.6005 12.1777C20.6477 12.1306 20.6741 12.0666 20.6741 12V9.00001C20.6737 8.71344 20.5597 8.43872 20.357 8.23611C20.1543 8.03351 19.8796 7.91956 19.593 7.91926H2.10975C1.82321 7.91956 1.54849 8.03352 1.34587 8.23613C1.14326 8.43875 1.0293 8.71347 1.029 9.00001V21.8906C1.0294 22.1771 1.1434 22.4517 1.34601 22.6543C1.54861 22.8568 1.82327 22.9707 2.10975 22.971H19.593C19.8795 22.9708 20.1543 22.8569 20.357 22.6544C20.5597 22.4519 20.6737 22.1772 20.6741 21.8906V19.6571C20.6723 19.5884 20.6842 19.52 20.7092 19.456C20.7342 19.392 20.7718 19.3336 20.8198 19.2844C20.8677 19.2351 20.925 19.196 20.9883 19.1693C21.0517 19.1425 21.1197 19.1287 21.1884 19.1287C21.2572 19.1287 21.3252 19.1425 21.3885 19.1693C21.4519 19.196 21.5092 19.2351 21.5571 19.2844C21.6051 19.3336 21.6427 19.392 21.6677 19.456C21.6927 19.52 21.7046 19.5884 21.7028 19.6571V21.8906C21.7022 22.45 21.4797 22.9862 21.0841 23.3817C20.6886 23.7771 20.1523 23.9995 19.593 24H2.10975ZM18.1256 13.2799C17.6528 13.2799 17.1994 13.4677 16.865 13.802C16.5307 14.1364 16.3429 14.5898 16.3429 15.0626C16.3429 15.5355 16.5307 15.9889 16.865 16.3232C17.1994 16.6576 17.6528 16.8454 18.1256 16.8454H22.7197C22.7864 16.8454 22.8503 16.8189 22.8974 16.7718C22.9445 16.7247 22.971 16.6608 22.971 16.5941V13.5315C22.9711 13.4985 22.9646 13.4658 22.952 13.4352C22.9394 13.4047 22.9209 13.377 22.8975 13.3536C22.8742 13.3302 22.8465 13.3117 22.816 13.299C22.7855 13.2864 22.7528 13.2799 22.7197 13.2799H18.1256ZM14.7 1.33051L12.4751 2.66664C12.4398 2.68789 12.4103 2.71749 12.3892 2.75282C12.368 2.78815 12.3558 2.82813 12.3537 2.86927C12.3516 2.9104 12.3596 2.95142 12.377 2.98874C12.3945 3.02605 12.4208 3.0585 12.4537 3.08326C17.7337 7.02076 17.4562 6.89139 17.6152 6.89139H18.225C18.2705 6.89137 18.3151 6.87901 18.3541 6.85562C18.3931 6.83223 18.425 6.79869 18.4465 6.75858C18.4679 6.71847 18.4781 6.67329 18.4759 6.62786C18.4736 6.58244 18.4591 6.53846 18.4339 6.50064L15.0397 1.40664C15.0038 1.35267 14.9484 1.31464 14.8851 1.30046C14.8219 1.28629 14.7555 1.29705 14.7 1.33051ZM9.22237 3.91501C13.8907 7.00876 13.6189 6.89139 13.7633 6.89139H15.063C15.1157 6.8911 15.1669 6.8743 15.2095 6.84336C15.2521 6.81242 15.2839 6.7689 15.3005 6.71892C15.317 6.66894 15.3175 6.61502 15.3018 6.56476C15.2861 6.51451 15.2551 6.47044 15.213 6.43876L8.463 1.37626C8.41033 1.33669 8.34423 1.3194 8.27893 1.3281C8.21363 1.33679 8.15435 1.37079 8.11387 1.42276L4.17637 6.48526C4.14757 6.52243 4.12976 6.56693 4.12496 6.6137C4.12016 6.66048 4.12857 6.70766 4.14922 6.74991C4.16987 6.79215 4.20195 6.82776 4.24181 6.8527C4.28167 6.87764 4.32773 6.89091 4.37475 6.89101H6.255C6.29399 6.89092 6.33243 6.8818 6.3673 6.86437C6.40218 6.84693 6.43254 6.82165 6.456 6.79051L8.523 4.03426C8.6017 3.92804 8.7184 3.85633 8.84873 3.8341C8.97905 3.81188 9.11292 3.84087 9.22237 3.91501ZM8.91413 5.23051L7.97025 6.48751C7.94229 6.52487 7.92528 6.56928 7.9211 6.61576C7.91693 6.66224 7.92576 6.70896 7.94662 6.75071C7.96747 6.79245 7.99952 6.82758 8.03919 6.85216C8.07886 6.87674 8.12458 6.8898 8.17125 6.88989H11.0025C11.0564 6.88971 11.1087 6.87226 11.1519 6.8401C11.1952 6.80794 11.2269 6.76276 11.2425 6.71121C11.2581 6.65967 11.2568 6.60447 11.2387 6.55374C11.2206 6.50301 11.1867 6.45942 11.142 6.42939L9.25463 5.17089C9.20099 5.13545 9.13583 5.12189 9.07252 5.13297C9.0092 5.14406 8.95253 5.17896 8.91413 5.23051Z" fill="#333333"/>
<path id="Vector_2" d="M18.8914 15.69C19.2379 15.69 19.5188 15.4091 19.5188 15.0626C19.5188 14.7162 19.2379 14.4353 18.8914 14.4353C18.5449 14.4353 18.264 14.7162 18.264 15.0626C18.264 15.4091 18.5449 15.69 18.8914 15.69Z" fill="#333333"/>
<path id="Vector_3" d="M9.70276 20.937C9.56627 20.9371 9.43533 20.883 9.33871 20.7866C9.24209 20.6902 9.18771 20.5594 9.18751 20.4229V19.6571C9.18751 19.5905 9.16104 19.5266 9.11392 19.4795C9.0668 19.4324 9.00289 19.4059 8.93626 19.4059H8.17163C8.10496 19.4059 8.04102 19.4323 7.99384 19.4795C7.94666 19.5266 7.92011 19.5905 7.92001 19.6571V20.4229C7.91639 20.5569 7.86061 20.6842 7.76456 20.7777C7.6685 20.8712 7.53974 20.9235 7.40569 20.9235C7.27165 20.9235 7.14289 20.8712 7.04683 20.7777C6.95077 20.6842 6.895 20.5569 6.89138 20.4229V19.6571C6.89138 19.5905 6.86491 19.5266 6.81779 19.4795C6.77067 19.4324 6.70677 19.4059 6.64013 19.4059H5.87438C5.73793 19.4059 5.60706 19.3517 5.51058 19.2552C5.41409 19.1587 5.35988 19.0278 5.35988 18.8914C5.35988 18.7549 5.41409 18.6241 5.51058 18.5276C5.60706 18.4311 5.73793 18.3769 5.87438 18.3769H6.64013C6.67313 18.3769 6.7058 18.3704 6.73628 18.3578C6.76676 18.3451 6.79446 18.3266 6.81779 18.3033C6.84112 18.28 6.85963 18.2523 6.87226 18.2218C6.88488 18.1913 6.89138 18.1586 6.89138 18.1256V13.5315C6.89143 13.4985 6.88497 13.4658 6.87236 13.4352C6.85976 13.4047 6.84126 13.377 6.81793 13.3536C6.79459 13.3302 6.76688 13.3117 6.73637 13.299C6.70586 13.2864 6.67316 13.2799 6.64013 13.2799H5.87438C5.80567 13.2817 5.73729 13.2698 5.67327 13.2448C5.60925 13.2198 5.55088 13.1822 5.50163 13.1343C5.45238 13.0863 5.41323 13.029 5.3865 12.9657C5.35977 12.9023 5.34599 12.8343 5.34599 12.7656C5.34599 12.6968 5.35977 12.6288 5.3865 12.5655C5.41323 12.5022 5.45238 12.4448 5.50163 12.3969C5.55088 12.3489 5.60925 12.3114 5.67327 12.2863C5.73729 12.2613 5.80567 12.2494 5.87438 12.2513H6.64013C6.70677 12.2513 6.77067 12.2248 6.81779 12.1777C6.86491 12.1306 6.89138 12.0666 6.89138 12V11.2343C6.88953 11.1656 6.90146 11.0972 6.92647 11.0331C6.95148 10.9691 6.98907 10.9108 7.03701 10.8615C7.08495 10.8123 7.14228 10.7731 7.2056 10.7464C7.26892 10.7196 7.33696 10.7059 7.40569 10.7059C7.47443 10.7059 7.54247 10.7196 7.60579 10.7464C7.66911 10.7731 7.72644 10.8123 7.77438 10.8615C7.82232 10.9108 7.85991 10.9691 7.88492 11.0331C7.90993 11.0972 7.92186 11.1656 7.92001 11.2343V12C7.92011 12.0667 7.94666 12.1306 7.99384 12.1777C8.04102 12.2248 8.10496 12.2513 8.17163 12.2513H8.93738C9.00382 12.251 9.06744 12.2244 9.11432 12.1773C9.16119 12.1302 9.18751 12.0665 9.18751 12V11.2343C9.18565 11.1656 9.19758 11.0972 9.22259 11.0331C9.24761 10.9691 9.28519 10.9108 9.33314 10.8615C9.38108 10.8123 9.4384 10.7731 9.50173 10.7464C9.56505 10.7196 9.63309 10.7059 9.70182 10.7059C9.77055 10.7059 9.83859 10.7196 9.90191 10.7464C9.96524 10.7731 10.0226 10.8123 10.0705 10.8615C10.1184 10.9108 10.156 10.9691 10.181 11.0331C10.2061 11.0972 10.218 11.1656 10.2161 11.2343V12.141C10.2161 12.1928 10.2322 12.2434 10.2621 12.2858C10.2919 12.3281 10.3342 12.3602 10.383 12.3776C10.6645 12.4753 10.921 12.6339 11.1342 12.842C11.3474 13.0502 11.512 13.3029 11.6163 13.582C11.7206 13.8611 11.762 14.1598 11.7376 14.4568C11.7132 14.7538 11.6235 15.0417 11.475 15.3C11.4428 15.3562 11.4335 15.4227 11.4492 15.4856C11.4648 15.5485 11.5042 15.6029 11.559 15.6375C11.9325 15.8744 12.219 16.226 12.3757 16.6396C12.5323 17.0532 12.5506 17.5064 12.4278 17.9312C12.305 18.3561 12.0477 18.7297 11.6946 18.9959C11.3415 19.2621 10.9115 19.4066 10.4693 19.4078C10.4026 19.4078 10.3387 19.4342 10.2916 19.4813C10.2445 19.5285 10.218 19.5924 10.218 19.659V20.4248C10.2173 20.5609 10.1627 20.6913 10.0661 20.7873C9.96958 20.8833 9.83892 20.9371 9.70276 20.937ZM8.17163 16.3429C8.10496 16.3429 8.04102 16.3693 7.99384 16.4165C7.94666 16.4636 7.92011 16.5275 7.92001 16.5941V18.1256C7.92011 18.1923 7.94666 18.2562 7.99384 18.3033C8.04102 18.3504 8.10496 18.3769 8.17163 18.3769H10.4685C11.8148 18.3769 11.8133 16.3429 10.4685 16.3429H8.17163ZM8.17163 13.2799C8.1049 13.2799 8.0409 13.3064 7.99371 13.3536C7.94652 13.4008 7.92001 13.4648 7.92001 13.5315V15.0626C7.92011 15.1293 7.94665 15.1933 7.99382 15.2405C8.04098 15.2876 8.10493 15.3142 8.17163 15.3143H9.70276C11.049 15.3143 11.0475 13.2799 9.70276 13.2799H8.17163Z" fill="#333333"/>
</g>
</g>
</g>
<defs>
<clipPath id="clip0_48_249">
<rect width="24" height="24" fill="white"/>
</clipPath>
</defs>
</svg>
