<svg width="24" height="24" viewBox="0 0 24 24" fill="none" xmlns="http://www.w3.org/2000/svg">
<g id="game-controller 1">
<g id="Group">
<path id="XMLID_948_" d="M21.75 10.275C21.225 6.975 18.375 4.5 15.075 4.5H9C5.625 4.5 2.775 6.975 2.25 10.275C1.725 13.8 1.5 15.375 1.5 15.975C1.5 19.65 6.525 20.85 8.175 17.55L9.45 15H14.55L15.825 17.55C17.475 20.85 22.5 19.65 22.5 15.975C22.5 15.45 22.5 16.125 21.75 10.275ZM21 15.975C21 18.075 18.075 18.825 17.175 16.875L15.675 13.875C15.525 13.65 15.3 13.5 15 13.5H9C8.7 13.5 8.475 13.65 8.325 13.95L6.825 16.95C5.925 18.825 3 18.075 3 15.975L3.75 10.5C4.125 7.95 6.375 6 8.925 6H15C17.625 6 19.8 7.95 20.175 10.5C20.25 10.575 21.075 16.35 21 15.975Z" fill="#333333"/>
<path id="XMLID_82_" d="M10.5 9.75C10.5 10.2 10.2 10.5 9.75 10.5H9V11.25C9 11.7 8.7 12 8.25 12C7.8 12 7.5 11.7 7.5 11.25V10.5H6.75C6.3 10.5 6 10.2 6 9.75C6 9.3 6.3 9 6.75 9H7.5V8.25C7.5 7.8 7.8 7.5 8.25 7.5C8.7 7.5 9 7.8 9 8.25V9H9.75C10.2 9 10.5 9.3 10.5 9.75Z" fill="#333333"/>
<path id="XMLID_84_" d="M15 9.75C15 10.2 14.7 10.5 14.25 10.5C13.8 10.5 13.5 10.2 13.5 9.75C13.5 9.3 13.8 9 14.25 9C14.7 9 15 9.3 15 9.75Z" fill="#333333"/>
<path id="XMLID_85_" d="M16.5 11.25C16.5 11.7 16.2 12 15.75 12C15.3 12 15 11.7 15 11.25C15 10.8 15.3 10.5 15.75 10.5C16.2 10.5 16.5 10.8 16.5 11.25Z" fill="#333333"/>
<path id="XMLID_86_" d="M18 9.75C18 10.2 17.7 10.5 17.25 10.5C16.8 10.5 16.5 10.2 16.5 9.75C16.5 9.3 16.8 9 17.25 9C17.7 9 18 9.3 18 9.75Z" fill="#333333"/>
<path id="XMLID_87_" d="M15 8.25C15 7.8 15.3 7.5 15.75 7.5C16.2 7.5 16.5 7.8 16.5 8.25C16.5 8.7 16.2 9 15.75 9C15.3 9 15 8.7 15 8.25Z" fill="#333333"/>
</g>
</g>
</svg>
