<svg width="14" height="14" viewBox="0 0 14 14" fill="none" xmlns="http://www.w3.org/2000/svg">
<g id="github 1">
<g id="Group">
<path id="Vector" d="M9.84044 14.0001H4.47875V12.5106H3.63357C2.76624 12.5071 1.99054 11.9698 1.68249 11.1591L1.36975 10.3213C1.32622 10.2048 1.21485 10.1276 1.09049 10.1277H0.904286C0.640957 10.128 0.390937 10.0124 0.220875 9.81134C0.0508131 9.61041 -0.0220549 9.34468 0.0217968 9.08517C0.0925923 8.66061 0.483549 8.34045 0.934066 8.34045H1.60428C2.20009 8.33969 2.73908 8.6941 2.97448 9.24149L3.32824 10.0644C3.42205 10.2833 3.63728 10.4254 3.87551 10.4256H4.47875C4.53089 9.69571 4.77284 9.11866 5.18616 8.71276L5.26808 8.63454C3.37656 8.00906 2.09581 6.47501 2.09581 4.76599C2.09963 4.06676 2.30667 3.38379 2.69152 2.79997V1.56012C2.69141 1.07568 2.80355 0.597674 3.01921 0.163848L3.10484 3.39475e-06H3.61862C4.25131 -0.00250554 4.85869 0.248169 5.30539 0.696286L5.44687 0.837768C6.56793 0.511934 7.75869 0.511934 8.87985 0.837768L9.02133 0.696286C9.46705 0.249151 10.0729 -0.00152378 10.7043 3.39475e-06H11.2181L11.3 0.163848C11.5156 0.597674 11.6278 1.07568 11.6277 1.56012V2.79997C12.0125 3.38379 12.2196 4.06676 12.2234 4.76599C12.2234 6.47501 10.9425 8.00906 9.05111 8.63454L9.1218 8.70534C9.57984 9.15477 9.8387 9.76891 9.84044 10.4106V14.0001ZM5.07446 13.4042H9.24474V10.4106C9.24266 9.92992 9.04828 9.46991 8.70477 9.13349L7.87824 8.32551L8.40697 8.20268C10.3021 7.75587 11.6277 6.34465 11.6277 4.76599C11.6235 4.15447 11.4339 3.55854 11.084 3.05697L11.032 2.98247V1.56012C11.0321 1.22938 10.9675 0.9018 10.8421 0.59582H10.7043C10.2303 0.595384 9.77587 0.784317 9.44207 1.12073L9.03988 1.51922L8.86491 1.45955C7.75629 1.10099 6.56291 1.10099 5.45429 1.45955L5.27932 1.51922L4.87712 1.12073C4.54333 0.784317 4.08888 0.595384 3.61491 0.59582H3.47714C3.35169 0.9018 3.28712 1.22938 3.28723 1.56012V2.98247L3.23508 3.05697C2.88525 3.55854 2.69566 4.15447 2.69152 4.76599C2.69152 6.34465 4.017 7.75587 5.91222 8.19897L6.44095 8.3218L5.60319 9.14102C5.29415 9.44253 5.11547 9.88934 5.07075 10.4739C5.04566 10.7825 4.78833 11.0203 4.47875 11.0213H3.87551C3.39904 11.0211 2.96848 10.7369 2.78086 10.2989L2.43092 9.47613C2.28933 9.14767 1.96556 8.93529 1.60799 8.93616H0.937775C0.77764 8.93616 0.636158 9.04415 0.613905 9.18193C0.598524 9.26821 0.621977 9.3569 0.677937 9.42431C0.733897 9.49172 0.816692 9.53111 0.904286 9.53198H1.08667C1.45952 9.53274 1.79299 9.76389 1.92444 10.1127L2.23729 10.9468C2.45666 11.528 3.01233 11.9132 3.63357 11.9149H4.47875C4.80775 11.9149 5.07446 12.1816 5.07446 12.5106V13.4042Z" fill="#333333"/>
</g>
</g>
</svg>
