<svg width="24" height="24" viewBox="0 0 24 24" fill="none" xmlns="http://www.w3.org/2000/svg">
<g id="headphone 1" clip-path="url(#clip0_48_231)">
<g id="Group">
<path id="Vector" d="M24 12.6799C24 6.06315 18.6168 0.679962 12 0.679962C5.38318 0.679962 0 6.06315 0 12.6799C0 13.9325 0.192611 15.1657 0.571414 16.3473V18.8633C0.571414 20.0454 1.54762 21.0317 2.8333 21.2419V21.4789C2.8333 22.4941 3.76884 23.32 4.91885 23.32C6.06879 23.32 7.00433 22.4941 7.00433 21.4789V13.719C7.00433 12.7038 6.06879 11.8779 4.91885 11.8779C4.38145 11.8779 3.89098 12.0583 3.52082 12.3541C3.69271 7.82531 7.42991 4.19382 12 4.19382C16.5701 4.19382 20.3074 7.82539 20.4791 12.3542C20.1089 12.0584 19.6184 11.8779 19.081 11.8779C17.931 11.8779 16.9954 12.7038 16.9954 13.719V21.4789C16.9954 22.4941 17.931 23.32 19.081 23.32C20.2309 23.32 21.1665 22.4941 21.1665 21.4789V21.2419C22.4521 21.0317 23.4284 20.0454 23.4284 18.8633V16.348C23.8073 15.1662 24 13.9327 24 12.6799ZM1.64148 18.8633V16.3345C1.64148 15.731 2.14318 15.219 2.8333 15.0463V20.1515C2.14318 19.9789 1.64148 19.4667 1.64148 18.8633ZM3.90329 13.719C3.90329 13.3011 4.36831 12.9479 4.91878 12.9479C5.46917 12.9479 5.93419 13.3011 5.93419 13.719V21.4789C5.93419 21.8968 5.46917 22.2499 4.91878 22.2499C4.36831 22.2499 3.90329 21.8968 3.90329 21.4789V13.719ZM12 3.12376C6.73078 3.12376 2.44387 7.41066 2.44387 12.6799C2.44387 13.1285 2.47575 13.5768 2.53773 14.0188C2.03962 14.1513 1.60089 14.4032 1.26474 14.7361C1.13633 14.0617 1.07006 13.3743 1.07006 12.6799C1.07006 6.65313 5.97317 1.75003 12 1.75003C18.0268 1.75003 22.9299 6.65313 22.9299 12.6799C22.9299 13.3743 22.8637 14.0617 22.7353 14.7362C22.3992 14.4034 21.9604 14.1514 21.4623 14.0188C21.5242 13.5764 21.5561 13.1281 21.5561 12.6798C21.5561 7.41066 17.2692 3.12376 12 3.12376ZM20.0965 21.4789C20.0965 21.8969 19.6315 22.25 19.0811 22.25C18.5306 22.25 18.0656 21.8969 18.0656 21.4789V13.719C18.0656 13.3011 18.5306 12.9479 19.0811 12.9479C19.6315 12.9479 20.0965 13.3011 20.0965 13.719V21.4789ZM22.3584 18.8633C22.3584 19.4668 21.8566 19.9789 21.1665 20.1516V15.0464C21.8566 15.2191 22.3584 15.7312 22.3584 16.3345V18.8633Z" fill="#333333"/>
</g>
</g>
<defs>
<clipPath id="clip0_48_231">
<rect width="24" height="24" fill="white"/>
</clipPath>
</defs>
</svg>
