<svg width="16" height="16" viewBox="0 0 16 16" fill="none" xmlns="http://www.w3.org/2000/svg">
<g id="heart 1" clip-path="url(#clip0_40_104)">
<g id="Group">
<path id="Vector" d="M7.99998 15.1098C7.7722 15.1098 7.5526 15.0273 7.38146 14.8774C6.73509 14.3122 6.11193 13.7811 5.56212 13.3126L5.55932 13.3102C3.94738 11.9365 2.55541 10.7502 1.58691 9.58165C0.504271 8.27525 0 7.03661 0 5.68346C0 4.36877 0.450805 3.15588 1.26928 2.26806C2.09753 1.36975 3.234 0.875 4.46972 0.875C5.3933 0.875 6.23912 1.16699 6.98363 1.7428C7.35936 2.03345 7.69994 2.38916 7.99998 2.80407C8.30015 2.38916 8.64061 2.03345 9.01646 1.7428C9.76097 1.16699 10.6068 0.875 11.5304 0.875C12.766 0.875 13.9026 1.36975 14.7308 2.26806C15.5493 3.15588 16 4.36877 16 5.68346C16 7.03661 15.4958 8.27525 14.4132 9.58153C13.4447 10.7502 12.0528 11.9364 10.4411 13.3099C9.89036 13.7791 9.26622 14.3111 8.61839 14.8777C8.44737 15.0273 8.22764 15.1098 7.99998 15.1098ZM4.46972 1.81225C3.49889 1.81225 2.60705 2.1997 1.95825 2.90332C1.2998 3.61755 0.937132 4.60485 0.937132 5.68346C0.937132 6.82152 1.3601 7.83934 2.30847 8.98363C3.22509 10.0897 4.58849 11.2516 6.1671 12.5969L6.17003 12.5993C6.72191 13.0697 7.34752 13.6029 7.99864 14.1722C8.65367 13.6018 9.28026 13.0677 9.83323 12.5967C11.4117 11.2513 12.775 10.0897 13.6916 8.98363C14.6399 7.83934 15.0628 6.82152 15.0628 5.68346C15.0628 4.60485 14.7002 3.61755 14.0417 2.90332C13.393 2.1997 12.5011 1.81225 11.5304 1.81225C10.8192 1.81225 10.1662 2.03833 9.5897 2.48413C9.07591 2.88159 8.718 3.38403 8.50816 3.73559C8.40025 3.91638 8.21031 4.02429 7.99998 4.02429C7.78966 4.02429 7.59972 3.91638 7.49181 3.73559C7.28209 3.38403 6.92418 2.88159 6.41027 2.48413C5.83373 2.03833 5.18078 1.81225 4.46972 1.81225Z" fill="#B8B8B8"/>
</g>
</g>
<defs>
<clipPath id="clip0_40_104">
<rect width="16" height="16" fill="white"/>
</clipPath>
</defs>
</svg>
