<svg width="14" height="14" viewBox="0 0 14 14" fill="none" xmlns="http://www.w3.org/2000/svg">
<g id="telegram 1" clip-path="url(#clip0_11_2)">
<g id="Group">
<g id="Group_2">
<g id="Group_3">
<path id="Vector" d="M13.7259 1.14704C13.5006 0.940672 13.1805 0.871903 12.8904 0.967524L0.580534 5.02536C0.245053 5.13594 0.0175533 5.43541 0.00095562 5.78823C-0.0156147 6.14107 0.182764 6.46058 0.50635 6.6022L3.55067 7.93417C3.56551 8.00307 4.43945 12.0564 4.46917 12.1942C4.50732 12.3712 4.59714 12.5288 4.78742 12.5773C4.9799 12.6263 5.11588 12.5211 5.25949 12.4136C5.33941 12.3538 7.51863 10.722 7.51863 10.722L10.1597 12.8832C10.3136 13.0091 10.5016 13.0748 10.6933 13.0748C10.7846 13.0748 10.8767 13.0599 10.9663 13.0295C11.2443 12.9353 11.4504 12.7084 11.5176 12.4227L13.9776 1.96363C14.0475 1.66627 13.9511 1.3534 13.7259 1.14704ZM5.45628 8.69741C5.45478 8.70097 5.4533 8.70499 5.4519 8.7098L4.94265 10.489L4.37434 7.8532L8.28223 5.68197L5.55001 8.53879C5.50698 8.5838 5.47531 8.63821 5.45628 8.69741ZM5.61791 11.118L5.84921 10.3099L6.07045 9.53689L6.86317 10.1856L5.61791 11.118ZM13.1772 1.77534L10.7172 12.2344C10.716 12.2396 10.7143 12.2467 10.7023 12.2508C10.6904 12.2549 10.6846 12.2502 10.6805 12.2468L7.79048 9.88194C7.7904 9.88189 7.79034 9.88181 7.79026 9.88175L6.45126 8.78603L10.7531 4.28804C10.8936 4.14112 10.9056 3.91359 10.7814 3.75268C10.6571 3.59173 10.4339 3.54577 10.2563 3.64453L3.8865 7.18361L0.835952 5.84888C0.826655 5.84483 0.821542 5.84256 0.82228 5.82684C0.823018 5.81117 0.828323 5.80939 0.837948 5.80622L13.1478 1.74841C13.1537 1.74647 13.1605 1.74422 13.1704 1.75325C13.1803 1.76232 13.1786 1.76922 13.1772 1.77534Z" fill="#333333"/>
</g>
</g>
</g>
</g>
<defs>
<clipPath id="clip0_11_2">
<rect width="14" height="14" fill="white"/>
</clipPath>
</defs>
</svg>
